<?xml version="1.0" encoding="utf-8"?>
<!-- Generator: Adobe Illustrator 24.3.0, SVG Export Plug-In . SVG Version: 6.00 Build 0)  -->
<svg version="1.1" id="Ebene_1" xmlns="http://www.w3.org/2000/svg" xmlns:xlink="http://www.w3.org/1999/xlink" x="0px" y="0px"
	 viewBox="0 0 1920 1080" style="enable-background:new 0 0 1920 1080;" xml:space="preserve">
<style type="text/css">
	.st0{fill:#FFFFFF;}
	.st1{fill:none;stroke:#EA4893;stroke-width:2;stroke-miterlimit:10;}
	.st2{fill:#EA4893;}
	.st3{fill:#FFFFFF;stroke:#18189B;stroke-width:2;stroke-miterlimit:10;}
	.st4{fill:none;stroke:#089439;stroke-width:2;stroke-miterlimit:10;}
	.st5{fill:#089439;}
	.st6{fill:#FFFFFF;stroke:#223A8F;stroke-width:2;stroke-miterlimit:10;}
	.st7{fill:none;stroke:#223A8F;stroke-width:2;stroke-miterlimit:10;}
	.st8{fill:#223A8F;}
	.st9{fill:none;stroke:#1D1D1B;stroke-width:2;stroke-miterlimit:10;}
	.st10{fill:#1D1D1B;}
</style>
<g>
	<line class="st0" x1="795.26" y1="615.85" x2="1105.78" y2="429.78"/>
	<g>
		<line class="st1" x1="795.26" y1="615.85" x2="1095.42" y2="435.98"/>
		<g>
			<path class="st2" d="M1105.78,429.78c-3.79,4.73-7.99,11.43-9.77,16.95l-1.94-9.93l-7.84-6.39
				C1091.93,431.43,1099.82,430.89,1105.78,429.78z"/>
		</g>
	</g>
</g>
<path class="st3" d="M1171.56,627.11"/>
<path class="st3" d="M1124.15,427.41"/>
<g>
	<line class="st0" x1="1012" y1="527.85" x2="1188.89" y2="431.85"/>
	<g>
		<line class="st4" x1="1022.61" y1="522.09" x2="1188.89" y2="431.85"/>
		<g>
			<path class="st5" d="M1012,527.85c6-0.86,13.91-1.06,19.56,0.21l-7.56-6.72l-1.51-10C1020.47,516.77,1015.99,523.29,1012,527.85z
				"/>
		</g>
	</g>
</g>
<path class="st6" d="M1174.22,623.56"/>
<path class="st6" d="M1009.55,541.78"/>
<g>
	<line class="st0" x1="1188.89" y1="440" x2="1182.78" y2="623.56"/>
	<g>
		<line class="st7" x1="1188.49" y1="452.06" x2="1182.78" y2="623.56"/>
		<g>
			<path class="st8" d="M1188.89,440c-2.3,5.61-6.12,12.53-10.08,16.77l9.62-3.12l9.39,3.75
				C1194.16,452.91,1190.8,445.75,1188.89,440z"/>
		</g>
	</g>
</g>
<g>
	<line class="st0" x1="908.44" y1="538.22" x2="1182.78" y2="538.22"/>
	<g>
		<line class="st9" x1="920.51" y1="538.22" x2="1182.78" y2="538.22"/>
		<g>
			<path class="st10" d="M908.44,538.22c5.68,2.11,12.73,5.7,17.09,9.51l-3.44-9.51l3.44-9.51
				C921.17,532.52,914.12,536.12,908.44,538.22z"/>
		</g>
	</g>
</g>
</svg>
